<?xml version="1.0" encoding="utf-8"?>
<!-- Generator: Adobe Illustrator 16.0.0, SVG Export Plug-In . SVG Version: 6.00 Build 0)  -->
<!DOCTYPE svg PUBLIC "-//W3C//DTD SVG 1.1//EN" "http://www.w3.org/Graphics/SVG/1.1/DTD/svg11.dtd">
<svg version="1.1" id="Layer_1" xmlns="http://www.w3.org/2000/svg" xmlns:xlink="http://www.w3.org/1999/xlink" x="0px" y="0px"
	 width="1920px" height="1080px" viewBox="0 0 1920 1080" enable-background="new 0 0 1920 1080" xml:space="preserve">
<path fill-rule="evenodd" clip-rule="evenodd" d="M1287.484,632.565c-5.885,2.958-8.14,7.974-7.508,15.153
	c0.742,8.437,0.13,16.984,0.646,25.451c0.512,8.413,3.118,10.557,11.617,10.938c4.14,0.187,4.14,0.187,4.108,3.782
	c-16.6,0-33.2,0-49.802,0c-0.307-0.368-0.613-0.735-0.92-1.104c0.964-0.883,1.806-2.268,2.918-2.537
	c1.899-0.461,3.984-0.081,5.963-0.303c5.499-0.617,7.976-3.02,8.564-8.59c0.453-4.293,0.795-8.625,0.774-12.938
	c-0.117-24.313-0.172-48.63-0.67-72.937c-0.155-7.601-2.602-9.193-10.429-9.537c-2.245-0.099-5.755,1.063-4.854-4.062
	c8.745,0,17.367-0.001,25.989,0c6.831,0.001,13.663-0.066,20.491,0.081c1.013,0.022,2.004,1.059,3.005,1.625
	c-0.99,0.761-1.918,2.08-2.979,2.197c-13.099,1.442-13.58,1.502-14.1,14.564c-0.487,12.269-0.104,24.572-0.104,37.565
	c1.391-0.905,2.368-1.373,3.141-2.068c11.382-10.25,22.758-20.508,34.077-30.827c1.961-1.787,3.796-3.755,5.443-5.834
	c5.543-6.994,3.76-11.484-4.981-13.215c-1.457-0.288-2.732-1.494-4.092-2.276c0.241-0.512,0.482-1.024,0.724-1.536
	c13.93,0,27.86,0,41.79,0c0.319,0.337,0.639,0.673,0.958,1.01c-0.977,0.935-1.853,2.526-2.947,2.695
	c-7.311,1.13-13.689,4.227-19.105,9.075c-11.763,10.53-23.338,21.27-35.842,32.701c13.555,13.27,26.721,26.185,39.918,39.069
	c5.835,5.696,11.739,11.323,17.597,16.997c3.974,3.849,8.621,6.056,14.212,6.463c1.187,0.087,2.281,1.442,3.418,2.213
	c-0.239,0.469-0.479,0.938-0.718,1.406c-19.231,0-38.462,0-57.692,0c-0.289-0.377-0.577-0.755-0.865-1.132
	c1.146-0.845,2.193-2.182,3.459-2.437c3.064-0.617,6.347-0.315,9.325-1.153c3.535-0.995,4.741-3.673,2.491-6.945
	c-1.879-2.732-3.873-5.463-6.226-7.778C1312.175,656.431,1299.938,644.649,1287.484,632.565z"/>
<path fill-rule="evenodd" clip-rule="evenodd" d="M998.161,627.37c5.274,1.513,10.669,2.622,15.725,4.597
	c12.594,4.919,19.181,15.658,18.028,28.564c-1.109,12.406-10.121,22.774-22.645,25.371c-5.668,1.176-11.517,1.945-17.297,2.03
	c-17.465,0.26-34.937,0.094-52.406,0.094c-0.29-0.441-0.58-0.884-0.87-1.326c1.097-0.855,2.131-2.355,3.3-2.468
	c14.289-1.383,14.989-1.319,15.208-15.545c0.409-26.645,0.026-53.303-0.259-79.952c-0.069-6.474-3.013-8.344-10.746-8.865
	c-2.154-0.146-6.25,1.892-5.882-4.147c14.297-0.291,28.556-0.625,42.816-0.856c10.062-0.162,19.986,0.9,29.189,5.252
	c14.412,6.813,18.781,25.203,8.02,36.273c-4.182,4.301-10.605,6.479-16.141,9.371C1002.375,626.716,1000.133,626.87,998.161,627.37z
	 M974.095,629.301c0,13.989-0.146,26.46,0.038,38.925c0.21,14.122,2.903,16.492,17.028,15.789
	c10.889-0.543,18.914-6.294,21.361-16.261c1.169-4.761,1.559-9.92,1.175-14.811c-0.793-10.073-5.376-18.106-15.859-20.518
	C990.332,630.699,982.509,630.354,974.095,629.301z M974.195,626.389c5.623-0.462,10.744-0.714,15.819-1.338
	c7.977-0.98,14.613-4.407,16.711-12.703c2.403-9.506,3.242-19.226-4.199-27.243c-1.935-2.084-4.802-4.054-7.51-4.523
	c-6.758-1.172-13.67-1.451-20.821-2.117C974.195,594.864,974.195,610.116,974.195,626.389z"/>
<path fill-rule="evenodd" clip-rule="evenodd" d="M1253.675,523.09c1.069-0.853,2.129-2.433,3.21-2.448
	c15.085-0.206,15.486-3.863,15.568-16.961c0.152-24.467,0.031-48.94-0.384-73.404c-0.155-9.123-1.958-10.422-11.032-11.099
	c-1.953-0.146-3.927-0.021-5.891-0.021c-0.277-0.531-0.555-1.062-0.832-1.593c1.163-0.83,2.309-2.356,3.492-2.387
	c19.598-0.511,39.263-1.993,58.789-0.944c34.128,1.833,52.886,25.327,51.824,58.856c-0.371,11.694-3.24,22.696-10.315,32.243
	c-8.728,11.776-21.235,16.655-35.18,18.396c-5.758,0.719-11.629,0.683-17.45,0.712c-16.965,0.085-33.93,0.03-50.895,0.03
	C1254.278,524.01,1253.977,523.55,1253.675,523.09z M1288.872,418.021c0,1.918,0,3.562-0.001,5.205
	c-0.002,26.473-0.011,52.945,0.005,79.418c0.002,2.828-0.029,5.675,0.263,8.481c0.59,5.658,3.338,8.685,8.948,8.768
	c7.288,0.107,14.637-0.081,21.87-0.915c10.835-1.249,19.213-7.029,23.76-16.867c10.677-23.101,9.786-46.034-3.1-68.101
	c-3.963-6.787-10.309-11.422-17.81-13.79C1311.857,416.763,1300.564,417.022,1288.872,418.021z"/>
<path fill-rule="evenodd" clip-rule="evenodd" d="M1462.891,604.596c-0.99-1.018-2.557-1.876-2.888-3.075
	c-5.823-21.079-13.52-21.581-30.285-21.648c-5.64-0.022-11.279-0.003-17.256-0.003c0,15.659,0,30.907,0,47.521
	c7.573-0.663,15.193-0.687,22.517-2.172c5.965-1.21,5.685-7.105,5.84-11.901c0.095-2.907,0.902-4.022,3.966-2.772
	c0,12.446,0,24.898,0,37.352c-0.349,0.315-0.697,0.632-1.046,0.948c-0.951-1.036-2.11-1.956-2.777-3.15
	c-0.434-0.777-0.086-1.963-0.201-2.952c-1.086-9.282-3.771-11.687-13.242-11.749c-4.662-0.03-9.325,0.058-13.988,0.119
	c-0.29,0.004-0.577,0.253-1.926,0.883c0.599,14.46,1.158,29.371,1.869,44.274c0.217,4.533,3.165,7.182,7.422,7.328
	c8.294,0.286,16.69,0.705,24.895-0.239c11.671-1.343,17.307-10.15,21.453-20.041c1.024-2.443,1.522-5.129,2.721-7.469
	c0.692-1.352,2.3-2.235,3.495-3.33c0.396,0.364,0.794,0.728,1.19,1.091c-0.775,11.371-1.551,22.743-2.338,34.285
	c-31.317,0-62.073,0-92.828,0c-0.273-0.431-0.546-0.862-0.819-1.293c1.14-0.82,2.219-2.249,3.427-2.367
	c11.679-1.141,13.693-2.995,13.758-14.768c0.137-25.159,0.053-50.32,0.019-75.481c-0.002-1.819-0.226-3.654-0.522-5.454
	c-1.065-6.454-2.886-8.096-9.486-8.528c-2.357-0.154-4.976,0.15-3.824-3.872c26.481,0,52.914,0,79.808,0
	c0.871,9.13,1.732,18.162,2.594,27.194C1463.92,603.749,1463.405,604.172,1462.891,604.596z"/>
<path fill-rule="evenodd" clip-rule="evenodd" d="M1121.016,414.824c0.85,9.089,1.653,17.684,2.457,26.279
	c-0.365,0.396-0.73,0.793-1.096,1.189c-1.149-1.028-2.719-1.849-3.355-3.132c-1.094-2.203-1.491-4.738-2.382-7.056
	c-3.159-8.218-8.78-13.176-17.974-13.196c-8.458-0.019-16.916-0.004-25.787-0.004c0,14.866,0,29.756,0,44.812
	c6.411,0,12.892,0.453,19.275-0.138c5.516-0.51,7.554-3.481,7.926-9.124c0.088-1.328-0.048-2.747,0.392-3.952
	c0.36-0.989,1.422-1.723,2.173-2.57c0.608,0.946,1.729,1.884,1.746,2.841c0.144,8.323,0.092,16.65,0.092,24.976
	c0,2.498,0.1,5.006-0.103,7.488c-0.063,0.755-0.983,1.439-1.511,2.156c-0.797-0.626-1.854-1.104-2.315-1.92
	c-0.452-0.8-0.331-1.94-0.405-2.935c-0.713-9.475-2.243-11.188-11.532-12.101c-3.634-0.357-7.315-0.24-10.977-0.317
	c-1.474-0.031-2.949-0.005-5.022-0.005c0,10.147-0.135,19.91,0.054,29.666c0.1,5.137,0.786,10.261,1.163,15.395
	c0.295,4.024,2.953,6.354,6.424,6.473c8.768,0.301,17.656,0.714,26.312-0.381c10.149-1.284,15.21-9.348,19.154-17.897
	c1.314-2.848,1.935-6.017,3.267-8.854c0.563-1.2,2.144-1.923,3.261-2.863c0.403,0.333,0.806,0.667,1.209,1
	c-0.752,11.059-1.504,22.118-2.274,33.447c-1.933,0.143-3.381,0.342-4.828,0.343c-27.15,0.019-54.3,0.037-81.45-0.035
	c-2.036-0.005-5.508,1.298-4.636-3.563c2.31-0.254,4.579-0.513,6.85-0.753c5.958-0.631,8.66-3.22,8.896-9.266
	c0.337-8.646,0.505-17.304,0.486-25.957c-0.042-18.648-0.151-37.297-0.435-55.942c-0.117-7.722-2.103-9.496-9.666-10.489
	c-1.471-0.193-2.815-1.333-4.218-2.037c1.453-0.631,2.903-1.807,4.36-1.813c23.484-0.109,46.971-0.073,70.456-0.053
	C1118.14,414.538,1119.277,414.695,1121.016,414.824z"/>
<path fill-rule="evenodd" clip-rule="evenodd" d="M1215.24,584.899c4.744-1.63,2.218-8.892,8.462-9.023c0,9.862,0,19.444,0,29.096
	c-3.165,1.473-3.572-0.72-4.782-2.934c-3.222-5.898-6.275-12.134-10.694-17.073c-5.942-6.644-14.354-8.146-22.996-6.711
	c-6.625,1.1-11.025,5.296-13.137,11.632c-2.138,6.415-0.998,12.615,4.095,16.902c5.15,4.337,11.049,7.919,16.991,11.149
	c7.872,4.278,16.272,7.584,24.144,11.863c13.386,7.28,19.076,21.247,15.442,36.613c-3.206,13.562-15.556,22.899-30.361,23.746
	c-13.622,0.778-25.229-3.065-34.323-13.042c-4.98,1.617-1.078,10.121-8.577,9.984c0-12.021,0-23.743,0-35.779
	c2.415-0.712,3.97-0.798,4.741,2.593c1.967,8.652,5.012,16.909,11.345,23.498c11.846,12.325,33.412,11.571,42.145-1.454
	c6.326-9.437,4.923-20.89-4.287-27.48c-5.886-4.212-12.702-7.136-19.151-10.543c-7.188-3.797-14.9-6.807-21.546-11.379
	c-10.362-7.131-14.41-17.765-12.233-30.115c2.123-12.043,9.873-19.661,21.714-21.923
	C1194.809,572.117,1206.462,574.585,1215.24,584.899z"/>
<path fill-rule="evenodd" clip-rule="evenodd" d="M1150.14,687.916c-14.453,0-28.906,0-43.359,0
	c-0.31-0.401-0.618-0.802-0.928-1.203c1.1-0.858,2.121-2.331,3.312-2.482c12.351-1.568,12.933-2.504,8.098-14.29
	c-2.711-6.605-5.342-13.248-8.271-19.756c-0.602-1.336-2.355-3.04-3.604-3.061c-13.312-0.222-26.629-0.138-40.407-0.138
	c-2.773,7.755-5.778,15.311-8.16,23.057c-2.377,7.73,0.452,11.986,8.229,14.023c1.281,0.335,2.292,1.702,3.428,2.593
	c-0.279,0.481-0.558,0.962-0.836,1.443c-10.137,0-20.273,0.039-30.409-0.07c-0.858-0.009-1.706-1.009-2.559-1.549
	c0.569-0.836,1.018-2.273,1.727-2.417c8.948-1.802,12.452-8.808,15.525-16.126c12.402-29.541,24.725-59.117,37.075-88.681
	c0.32-0.767,0.471-1.673,0.98-2.277c0.874-1.035,2.003-2.644,2.964-2.603c0.999,0.044,2.314,1.589,2.823,2.766
	c4.152,9.599,8.121,19.275,12.195,28.907c9.573,22.629,19.23,45.223,28.723,67.886c2.229,5.321,5.702,8.78,11.403,10.106
	c1.224,0.284,2.195,1.655,3.283,2.525C1150.961,687.019,1150.551,687.468,1150.14,687.916z M1106.171,642.789
	c-6.521-15.688-12.876-30.973-19.615-47.185c-6.75,16.367-13.041,31.621-19.46,47.185
	C1080.433,642.789,1093.014,642.789,1106.171,642.789z"/>
<path fill-rule="evenodd" clip-rule="evenodd" d="M1547.474,579.875c0,2.249,0,3.885,0,5.521
	c-0.001,26.991-0.001,53.982-0.001,80.974c0.001,0.833-0.028,1.668,0.012,2.499c0.638,13.498,2.021,14.786,15.622,15.346
	c1.456,0.06,2.864,1.285,4.295,1.971c-0.21,0.542-0.421,1.085-0.63,1.627c-18.416,0-36.831,0-55.247,0
	c-0.301-0.343-0.602-0.687-0.902-1.029c0.972-0.88,1.921-1.787,2.934-2.617c0.202-0.165,0.648-0.053,0.98-0.035
	c14.533,0.769,16.389-3.027,16.444-17.024c0.117-28.811,0.035-57.622,0.035-87.647c-10.45,0.495-20.698,0.473-30.803,1.663
	c-5.439,0.641-7.61,6.004-9.355,10.761c-0.967,2.633-1.282,5.511-2.316,8.109c-0.549,1.38-2.006,2.398-3.053,3.58
	c-0.354-0.27-0.709-0.54-1.064-0.81c0-8.756,0-17.513,0-26.572c36.494,0,72.585,0,109.184,0c0,8.728,0,17.464,0,27.317
	c-1.407-1.021-2.6-1.639-3.423-2.579c-0.462-0.528-0.253-1.605-0.446-2.411c-3.59-14.945-8.064-18.51-23.47-18.634
	C1560.284,579.835,1554.299,579.875,1547.474,579.875z"/>
<path fill-rule="evenodd" clip-rule="evenodd" d="M1251.451,524.435c-13.457,0-26.914,0.032-40.369-0.078
	c-0.823-0.007-1.638-1.13-2.456-1.735c0.729-0.705,1.356-1.813,2.21-2.031c1.75-0.445,3.627-0.367,5.443-0.584
	c5.011-0.599,6.855-3.154,5.07-7.87c-3.287-8.686-6.809-17.289-10.532-25.796c-0.512-1.17-2.726-2.235-4.168-2.257
	c-11.653-0.181-23.312-0.165-34.966-0.014c-1.32,0.018-3.404,0.934-3.812,1.959c-2.873,7.229-5.869,14.47-7.897,21.958
	c-1.787,6.599,1.152,10.297,7.708,12.145c1.408,0.397,2.523,1.83,3.773,2.786c-0.306,0.509-0.611,1.019-0.917,1.528
	c-9.63,0-19.26,0.054-28.888-0.081c-1-0.014-1.983-1.146-2.976-1.76c0.748-0.872,1.363-2.314,2.265-2.522
	c6.514-1.508,10.206-5.989,12.639-11.726c8.222-19.398,16.356-38.834,24.51-58.262c4.752-11.323,9.424-22.679,14.277-33.958
	c0.55-1.28,2.041-2.155,3.097-3.217c1.023,1.125,2.449,2.079,3.012,3.399c13.188,31,26.325,62.021,39.359,93.086
	c2.332,5.557,5.494,9.746,11.895,10.806c1.034,0.172,1.793,2.013,2.68,3.082C1252.089,523.675,1251.77,524.055,1251.451,524.435z
	 M1208.465,480.02c-6.427-15.469-12.584-30.29-19.191-46.198c-6.589,15.95-12.702,30.752-19.082,46.198c4.232,0,7.692,0,11.152,0
	C1190.124,480.02,1198.904,480.02,1208.465,480.02z"/>
<path fill-rule="evenodd" clip-rule="evenodd" d="M1509.289,742.203c2.022-4.142,1.182-10.623,8.915-7.717
	c-0.44,2.086-0.931,4.409-1.494,7.08c1.402,0.262,2.771,0.518,4.14,0.773c0.137,0.445,0.272,0.891,0.409,1.336
	c-1.876,0.599-3.752,1.197-6.042,1.929c-0.688,2.274-1.515,4.941-2.296,7.622c-0.714,2.448-1.377,4.912-2.063,7.369
	c0.405,0.272,0.811,0.546,1.216,0.818c2.055-1.648,4.108-3.298,6.163-4.947c-0.588,4.867-3.309,7.583-7.62,8.419
	c-3.934,0.763-6.508-1.666-5.801-5.822c0.774-4.549,2.271-8.976,3.696-14.377c-1.989,0.486-4.573,0.461-4.9,1.308
	c-1.909,4.94-4.617,2.857-8.185,0.4c-2.476,4.647-5.302,8.773-6.912,13.329c-1.425,4.03-3.432,5.221-7.894,3.906
	c1.524-5.904,3.062-11.857,4.968-19.24c-2.732,2.248-4.311,3.547-6.398,5.267c1.132-5.158,5.002-9.323,8.135-8.258
	c2.052,0.698,3.298,3.763,4.956,5.83c0.612-0.709,1.855-2.461,3.41-3.869c2.007-1.815,4.018-3.084,7.115-1.318
	C1504.422,742.96,1506.991,742.203,1509.289,742.203z"/>
<path fill-rule="evenodd" clip-rule="evenodd" d="M1546.989,763.218c-1.036,3.303-2.063,6.576-3.171,10.106
	c1.877,0.681,3.469,1.258,5.061,1.835c-0.027,0.367-0.054,0.735-0.081,1.103c-5.63,0-11.259,0-16.896,0
	c0-0.084-0.05-0.666,0.007-0.677c5.954-1.103,6.403-6.236,7.759-10.645c1.979-6.438,3.85-12.908,5.768-19.365
	c-0.369-0.229-0.739-0.46-1.108-0.689c-1.553,1.47-3.104,2.939-4.657,4.408c-0.283-4.261,1.814-7.018,5.277-7.665
	c2.24-0.419,4.818,0.973,7.246,1.554c-0.086,0.407-0.171,0.813-0.256,1.22c0.304-0.05,0.682-0.002,0.899-0.166
	c3.816-2.884,8-4.948,12.217-1.382c4.025,3.405,3.279,8.08,1.567,12.457C1563.383,763.59,1555.537,766.79,1546.989,763.218z
	 M1561.903,749.603c-1.241-1.903-1.905-4.096-3.17-4.528c-1.281-0.438-3.959,0.385-4.624,1.495
	c-2.08,3.474-3.785,7.253-5.006,11.112c-0.387,1.22,0.896,4.055,1.965,4.388c1.486,0.463,4.33-0.167,5.112-1.326
	C1558.439,757.39,1559.957,753.537,1561.903,749.603z"/>
<path fill-rule="evenodd" clip-rule="evenodd" d="M1117.701,761.165c1.516-1.173,3.031-2.346,4.547-3.518
	c-0.412,4.491-2.978,7.089-6.759,7.101c-2.168,0.007-4.344-2.068-6.956-3.437c-1.09,0.653-3.078,2.243-5.342,3.12
	c-5.011,1.94-9.335-1.063-8.967-6.414c0.473-6.875,3.614-12.66,9.995-15.526c2.942-1.321,6.775-0.66,10.779-0.938
	c-0.175-3.418,6.413-7.853-0.813-13.532c4.338-0.468,7.809-0.842,12.349-1.331c-3.551,11.803-6.874,22.849-10.197,33.896
	C1116.792,760.778,1117.246,760.972,1117.701,761.165z M1114.202,748.688c-1.439-2.323-1.948-4.182-2.953-4.506
	c-1.302-0.421-3.809-0.141-4.382,0.75c-2.259,3.507-4.143,7.296-5.743,11.156c-0.391,0.942,0.471,3.139,1.395,3.691
	c0.974,0.582,3.371,0.427,4.002-0.344C1109.322,756.012,1111.714,752.252,1114.202,748.688z"/>
<path fill-rule="evenodd" clip-rule="evenodd" d="M1423.999,767.278c1.537,2.829,2.129,5.763,3.811,6.665
	c5.016,2.69,10.934,1.264,14.223-3.228c-3.003-1.224-5.966-2.104-8.582-3.591c-2.406-1.369-5.535-3.026-6.277-5.247
	c-0.554-1.66,2.184-4.419,3.717-7.155c-2.148-2.261-2.939-5.68-0.337-9.347c2.436-3.432,8.018-4.944,12.645-3.908
	c1.878,0.421,3.935,0.013,5.908,0.045c1.1,0.019,2.285-0.046,3.254,0.356c0.424,0.176,0.724,1.983,0.529,2.096
	c-1.021,0.589-2.218,0.873-3.744,1.396c2.808,14.142-10.193,10.313-17.322,13.43c0.103,0.427,0.205,0.854,0.308,1.28
	c1.93,0.686,3.828,1.479,5.794,2.038c7.815,2.226,10.724,4.463,9.973,8.457c-1.164,6.185-6.615,6.734-11.258,6.931
	c-4.331,0.182-8.821-0.907-13.039-2.135c-1.203-0.351-2.469-3.219-2.296-4.775C1421.467,769.118,1423.485,767.856,1423.999,767.278z
	 M1445.096,747.052c-2.414-1.67-3.655-2.528-4.897-3.387c-1.691,2.546-3.618,4.984-4.883,7.728
	c-0.261,0.564,1.944,2.267,3.014,3.444C1440.321,752.545,1442.313,750.253,1445.096,747.052z"/>
<path fill-rule="evenodd" clip-rule="evenodd" d="M1355.271,776.102c5.472-9.946,6.815-20.516,10.708-30.463
	c-1.482-0.581-2.808-1.099-5.041-1.974c1.572-0.851,2.362-1.16,3.014-1.654c1.368-1.037,3.021-1.938,3.914-3.313
	c1.871-2.881,2.698-6.767,5.14-8.853c2.188-1.869,5.936-2.229,9.06-2.494c0.938-0.08,2.336,2.271,3.014,3.744
	c0.228,0.493-1.129,1.716-1.762,2.604c-1.163-0.898-2.389-1.73-3.461-2.727c-0.445-0.413-0.563-1.178-0.831-1.782
	c-0.452,0.145-0.905,0.289-1.358,0.434c-1.287,3.822-2.574,7.644-3.967,11.781c1.563,0.395,2.776,0.701,4.398,1.11
	c-0.685,0.84-1.308,2.152-1.782,2.101c-3.729-0.406-4.253,2.275-5.067,4.825c-2.071,6.478-4.041,12.994-6.354,19.386
	c-1.597,4.412-4.516,7.842-9.447,8.696c-1.553,0.269-3.538,0.289-4.778-0.471c-1.467-0.896-2.565-2.658-3.313-4.28
	c-0.182-0.394,2.126-2.615,2.441-2.442c1.345,0.734,2.393,2.031,3.506,3.164C1353.744,773.945,1354.075,774.505,1355.271,776.102z"
	/>
<path fill-rule="evenodd" clip-rule="evenodd" d="M1036.567,728.481c-1.659,5.129-2.897,8.959-4.214,13.03
	c1.574,0.37,2.786,0.655,4.166,0.979c-0.394,0.891-0.709,2.028-0.916,2.009c-5.3-0.496-5.265,3.817-6.337,7.019
	c-1.844,5.504-3.367,11.121-5.383,16.558c-1.729,4.664-4.474,8.809-9.934,9.451c-2.124,0.251-4.572-0.484-6.538-1.45
	c-0.875-0.431-1.289-2.569-1.2-3.884c0.05-0.735,1.744-2.07,2.368-1.904c1.214,0.325,2.302,1.416,3.232,2.39
	c0.489,0.511,0.535,1.444,1.534,2.376c6.376-8.772,7.057-19.646,11.376-29.491c-1.82-0.483-3.044-0.809-4.558-1.212
	c0.409-0.76,0.853-2.049,1.123-2.014c4.41,0.574,4.879-2.65,5.905-5.654c2.302-6.731,6.421-10.106,11.664-9.705
	c1.263,0.096,2.771,0.438,3.638,1.239c0.818,0.756,1.253,2.265,1.253,3.442c0.001,0.687-1.276,2.006-1.815,1.927
	c-1.099-0.162-2.17-0.974-3.092-1.717C1038.24,731.386,1037.922,730.55,1036.567,728.481z"/>
<path fill-rule="evenodd" clip-rule="evenodd" d="M1236.579,745.185c-1.368,2.063-2.358,3.559-3.667,5.532
	c-0.849-5.184,0.996-8.548,4.785-9.348c4.107-0.865,6.523,1.39,7.15,5.081c0.875,5.149,1.162,10.397,1.696,15.562
	c5.899-4.503,7.284-8.32,5.8-14.656c-0.408-1.744,0.135-3.742,0.473-5.581c0.033-0.178,2.338-0.375,2.525-0.014
	c0.931,1.8,2.21,3.831,2.082,5.693c-0.519,7.579-5.065,13.242-10.061,18.413c-5.113,5.294-10.861,9.836-18.307,11.5
	c-1.258,0.281-2.829,0.631-3.85,0.127c-1.252-0.619-2.078-2.102-3.088-3.211c1.285-0.769,2.595-2.223,3.85-2.176
	c3.482,0.129,7.889,3.061,10.015-1.016c2.188-4.192,3.254-9.291,3.513-14.064C1239.696,753.325,1240.235,748.829,1236.579,745.185z"
	/>
<path fill-rule="evenodd" clip-rule="evenodd" d="M1295.373,745.591c-1.71,1.25-3.42,2.5-5.129,3.75
	c-0.315-0.338-0.63-0.675-0.944-1.013c1.538-1.752,2.765-4.141,4.696-5.087c2.166-1.061,5.239-1.57,7.378-0.808
	c1.012,0.36,1.29,4.32,0.972,6.516c-0.508,3.508-1.789,6.904-2.743,10.348c0.418,0.304,0.836,0.606,1.255,0.909
	c1.41-1.086,3.228-1.906,4.15-3.313c2.084-3.177,4.249-6.473,5.413-10.036c1.421-4.352,3.671-5.914,8.405-4.396
	c-1.739,6-3.49,12.045-5.241,18.091c0.325,0.153,0.651,0.308,0.977,0.461c1.442-1.346,2.885-2.691,4.632-4.322
	c-0.064,5.09-3.68,8.667-7.907,8.257c-5.177-0.503-3.865-4.294-3.41-7.713c-2.646,2.391-4.814,4.943-7.535,6.583
	c-1.57,0.945-4.589,1.23-5.925,0.312c-1.213-0.834-1.66-3.811-1.333-5.646c0.744-4.175,2.171-8.229,3.32-12.333
	C1296.06,745.965,1295.717,745.777,1295.373,745.591z"/>
<path fill-rule="evenodd" clip-rule="evenodd" d="M1406.253,749.869c2.635-2.944,4.261-5.658,6.65-7.139
	c1.805-1.117,4.991-1.482,6.786-0.601c1.145,0.563,1.463,4.115,1.108,6.145c-0.69,3.95-2.113,7.772-3.519,12.636
	c3.021-1.854,4.926-3.022,6.829-4.191c0.376,0.568,0.751,1.137,1.127,1.704c-2.86,1.96-5.48,4.619-8.641,5.706
	c-4.126,1.418-6.369-1.086-5.492-5.405c0.525-2.588,1.52-5.077,2.185-7.642c0.394-1.513,0.558-3.086,0.824-4.633
	c-0.438-0.277-0.878-0.556-1.316-0.834c-1.614,1.653-3.516,3.116-4.773,5.006c-1.827,2.744-3.349,5.726-4.716,8.735
	c-2.284,5.03-2.189,5.073-8.185,4.303c1.748-6.085,3.486-12.137,5.225-18.189c-0.654-0.466-1.309-0.931-1.963-1.396
	c-0.845,1.95-1.689,3.901-2.533,5.852c-1.043-5.466,2.666-9.123,6.757-8.791C1406.061,741.415,1406.951,743.163,1406.253,749.869z"
	/>
<path fill-rule="evenodd" clip-rule="evenodd" d="M1188.893,742.744c2.762-0.408,4.847-0.717,7.768-1.147
	c-1.988,6.904-3.731,12.957-5.821,20.214c2.785-2.025,4.452-3.236,6.118-4.447c-0.783,4.523-3.266,7.417-7.38,7.413
	c-1.864-0.002-3.726-2.095-6.16-3.59c-0.067,0.056-1.07,1.371-2.378,1.846c-2.214,0.802-5.322,2.187-6.768,1.278
	c-1.764-1.109-3.117-4.365-3.033-6.633c0.218-5.857,2.813-10.951,7.712-14.433C1182.434,740.769,1186.176,739.771,1188.893,742.744z
	 M1178.287,760.129c5.636-1.181,11.175-10.092,9.535-14.313c-1.072-2.761-3.067-2.303-4.67-0.677
	C1179.155,749.195,1177.152,753.98,1178.287,760.129z"/>
<path fill-rule="evenodd" clip-rule="evenodd" d="M984.765,742.125c-1.805,6.229-3.533,12.199-5.61,19.372
	c2.73-1.864,4.39-2.997,6.049-4.13c-0.675,4.539-3.134,7.414-7.288,7.407c-1.916-0.003-3.828-2.037-6.397-3.531
	c-0.168,0.143-1.204,1.617-2.574,2.059c-2.213,0.715-5.064,1.643-6.859,0.801c-1.547-0.726-2.888-3.845-2.77-5.813
	c0.383-6.39,2.922-12.155,8.691-15.382c2.231-1.248,5.531-0.653,8.35-0.76C979.041,742.046,981.732,742.125,984.765,742.125z
	 M976.901,748.611c-0.949-2.064-1.271-3.941-2.032-4.141c-1.141-0.298-3.334,0.188-3.778,1.028
	c-1.953,3.694-3.55,7.596-4.994,11.526c-0.265,0.722,0.551,2.438,1.284,2.767c0.77,0.345,2.534-0.087,3.007-0.771
	C972.753,755.594,974.837,751.972,976.901,748.611z"/>
<path fill-rule="evenodd" clip-rule="evenodd" d="M1046.984,764.978c-6.415,0.021-10.772-3.909-10.838-9.773
	c-0.085-7.605,6.904-14.119,15.089-14.062c6.094,0.044,10.481,3.981,10.631,9.542
	C1062.073,758.363,1055.213,764.951,1046.984,764.978z M1056.123,749.399c-1.516-2.065-2.539-4.854-4.045-5.145
	c-1.734-0.336-4.853,1.021-5.674,2.551c-1.745,3.253-2.705,7.043-3.322,10.724c-0.223,1.33,1.186,3.917,2.336,4.251
	c1.554,0.45,4.444-0.137,5.232-1.308C1052.807,757.272,1054.162,753.533,1056.123,749.399z"/>
<path fill-rule="evenodd" clip-rule="evenodd" d="M930.192,751.1c-0.074,7.749-6.481,13.87-14.527,13.879
	c-6.785,0.008-10.857-3.853-10.763-10.202c0.111-7.523,6.804-13.672,14.85-13.644C926.215,741.155,930.25,745.008,930.192,751.1z
	 M924.862,749.478c-1.531-2.173-2.412-4.755-3.921-5.198c-1.555-0.456-4.738,0.648-5.425,1.985
	c-1.836,3.576-2.966,7.589-3.823,11.547c-0.258,1.19,1.007,3.577,2.1,3.977c1.392,0.509,4.168,0.136,4.858-0.874
	C921.014,757.455,922.725,753.552,924.862,749.478z"/>
<path fill-rule="evenodd" clip-rule="evenodd" d="M1076.189,764.979c-6.476-0.023-10.67-3.9-10.673-9.865
	c-0.003-7.715,6.89-14.115,15.053-13.979c6.416,0.106,10.515,4.088,10.407,10.11
	C1090.843,758.797,1084.156,765.007,1076.189,764.979z M1085.07,749.583c-1.234-2.092-2.177-5.157-3.259-5.207
	c-2.072-0.096-5.095,0.949-6.15,2.555c-1.843,2.802-2.955,6.318-3.451,9.671c-0.246,1.664,1.252,4.855,2.503,5.165
	c1.722,0.426,4.78-0.648,5.798-2.105C1082.515,756.791,1083.509,753.216,1085.07,749.583z"/>
<path fill-rule="evenodd" clip-rule="evenodd" d="M1261.881,754.848c0.057-7.564,6.705-13.766,14.709-13.721
	c6.615,0.037,10.512,3.71,10.508,9.907c-0.006,7.899-6.65,14.096-14.954,13.944C1265.723,764.861,1261.835,761.023,1261.881,754.848
	z M1281.396,749.466c-1.278-2.048-2.123-4.904-3.432-5.136c-1.826-0.322-4.948,0.753-5.827,2.232
	c-1.89,3.185-3.086,6.938-3.76,10.607c-0.263,1.428,1.373,4.301,2.644,4.64c1.619,0.432,4.59-0.473,5.483-1.805
	C1278.559,756.941,1279.709,753.271,1281.396,749.466z"/>
<path fill-rule="evenodd" clip-rule="evenodd" d="M1474.484,758.794c-3.392,2.007-6.557,4.81-10.224,5.855
	c-7.504,2.141-11.948-2.596-10.324-10.242c1.602-7.542,9.33-13.723,17.14-13.145c2.172,0.16,5.597,1.58,5.992,3.073
	c0.523,1.977-0.688,5.701-2.35,6.716c-4.274,2.609-9.208,4.139-14.127,6.205c0.026,3.813,1.532,5.197,5.483,3.722
	c2.576-0.961,4.865-2.693,7.283-4.081C1473.733,757.529,1474.109,758.162,1474.484,758.794z M1461.071,752.017
	c0.483,0.546,0.967,1.092,1.45,1.638c2.782-1.727,5.718-3.262,8.25-5.3c0.738-0.595,0.324-2.622,0.438-3.992
	c-1.387-0.055-3.393-0.72-4.047-0.054C1464.88,746.629,1463.064,749.41,1461.071,752.017z"/>
<path fill-rule="evenodd" clip-rule="evenodd" d="M996.558,761.171c1.464-1.282,2.929-2.565,4.393-3.848
	c0.396,0.344,0.791,0.688,1.187,1.032c-1.455,1.773-2.581,4.197-4.454,5.143c-1.954,0.985-5.042,1.361-6.841,0.445
	c-1.231-0.627-1.918-4.134-1.438-5.988c1.869-7.227,4.333-14.299,6.509-21.448c0.874-2.875,2.898-6.122-2.91-7.437
	c0.322-0.37,0.645-0.741,0.967-1.112c3.576-0.371,7.151-0.741,11.497-1.192c-3.533,11.807-6.828,22.814-10.122,33.822
	C995.748,760.782,996.153,760.977,996.558,761.171z"/>
<path fill-rule="evenodd" clip-rule="evenodd" d="M895.617,761.125c1.464-1.254,2.929-2.508,4.393-3.762
	c0.383,0.355,0.767,0.71,1.15,1.065c-1.488,1.772-2.653,4.198-4.553,5.136c-1.946,0.96-5.049,1.275-6.812,0.326
	c-1.228-0.66-1.842-4.14-1.358-6.003c1.871-7.201,4.311-14.253,6.502-21.372c1.472-4.782,1.444-4.791-2.612-8.465
	c4.31-0.453,7.89-0.829,12.165-1.277c-3.522,11.771-6.815,22.775-10.108,33.779C894.795,760.743,895.206,760.934,895.617,761.125z"
	/>
<path fill-rule="evenodd" clip-rule="evenodd" d="M1579.534,765.968c-2.806-1.442-5.849-2.588-8.275-4.509
	c-0.736-0.582,0.229-3.313,0.415-5.06c1.533,0.738,3.161,1.338,4.554,2.284c0.542,0.367,0.38,2.07,0.835,2.211
	c1.764,0.549,3.646,0.714,5.485,1.021c0.078-1.546,0.789-3.51,0.102-4.549c-1.343-2.029-4.142-3.242-5.082-5.353
	c-0.984-2.207-1.479-5.599-0.44-7.537c2.095-3.909,12.222-4.727,15.455-1.63c0.896,0.858,1.205,2.606,1.246,3.962
	c0.019,0.623-1.516,1.954-1.906,1.806c-1.222-0.463-2.216-1.504-3.332-2.272c-1.345-0.926-2.643-2.011-4.132-2.582
	c-0.508-0.195-2.28,1.223-2.2,1.446c0.575,1.604,1.446,3.107,2.299,4.601c0.235,0.41,0.706,0.701,1.102,1.003
	c3.016,2.305,5.92,4.849,4.312,9.116C1588.279,764.412,1584.15,764.847,1579.534,765.968z"/>
<path fill-rule="evenodd" clip-rule="evenodd" d="M1214.849,734.405c-0.69,2.536-1.292,4.748-1.964,7.218
	c1.656,0.245,3.09,0.458,4.91,0.729c-0.369,0.789-0.708,2.021-0.972,2.004c-6.45-0.391-6.274,4.94-7.616,8.832
	c-0.827,2.396-1.263,4.926-1.874,7.396c0.379,0.26,0.759,0.519,1.138,0.777c2.07-1.648,4.141-3.298,6.211-4.946
	c0.362,0.355,0.726,0.711,1.089,1.066c-1.558,1.914-2.759,4.518-4.769,5.559c-2.22,1.149-5.87,1.969-7.613,0.879
	c-1.561-0.976-2.102-4.836-1.793-7.257c0.474-3.714,2.063-7.285,3.276-11.236c-1.384-0.345-2.724-0.679-4.96-1.235
	c1.153-0.973,1.884-2.094,2.539-2.052c2.582,0.169,4.175-0.721,4.482-3.342C1207.506,733.926,1210.303,732.942,1214.849,734.405z"/>
<path fill-rule="evenodd" clip-rule="evenodd" d="M954.178,756.152c-0.359,1.912-0.314,2.312-0.492,2.528
	c-3.715,4.54-8.431,7.331-14.317,5.95c-2.088-0.49-4.794-2.955-5.241-4.959c-1.344-6.029,1.254-11.333,6.19-14.655
	c3.108-2.093,7.196-3.22,10.977-3.672c3.088-0.369,5.994,1.736,5.897,5.313c-0.039,1.418-2.092,2.782-3.228,4.171
	c-0.918-1.24-1.947-2.416-2.715-3.744c-0.511-0.884-0.478-2.72-0.988-2.839c-1.134-0.264-2.81-0.134-3.645,0.571
	c-4.175,3.521-6.04,8.297-5.952,13.64c0.049,3.017,3.537,3.96,7.025,2.013C949.596,759.406,951.343,758.056,954.178,756.152z"/>
<path fill-rule="evenodd" clip-rule="evenodd" d="M1322.958,749.266c0.759-4.739,3.312-8.243,7.869-7.787
	c1.654,0.165,2.945,3.955,4.343,6.005c1.102-1.157,2.637-3.465,4.78-4.777c1.491-0.913,3.819-0.461,5.773-0.618
	c0.072,1.841,0.81,4.026,0.074,5.45c-1.429,2.765-3.539,1.432-5.325-0.112c-0.215-0.187-0.615-0.16-2.064-0.491
	c-2.148,4.045-4.984,8.172-6.579,12.733c-1.529,4.376-3.784,5.292-8.023,3.828c1.555-5.919,3.096-11.782,5.015-19.086
	C1326.037,746.716,1324.497,747.991,1322.958,749.266z"/>
<path fill-rule="evenodd" clip-rule="evenodd" d="M1530.902,761.228c1.531-1.247,3.063-2.493,4.595-3.739
	c0.419,0.404,0.837,0.81,1.256,1.215c-1.867,1.873-3.46,4.263-5.692,5.444c-1.574,0.833-4.453,0.694-5.925-0.271
	c-1.097-0.718-1.519-3.61-1.113-5.256c1.089-4.424,2.783-8.697,4.719-14.469c-2.722,2.306-4.236,3.588-6.062,5.134
	c0.466-4.882,4.927-8.761,8.862-8.103c3.974,0.665,4.021,3.441,3.022,6.41c-1.456,4.329-3.126,8.588-4.704,12.877
	C1530.208,760.723,1530.555,760.975,1530.902,761.228z"/>
<path fill-rule="evenodd" clip-rule="evenodd" d="M1386.313,761.271c1.549-1.322,3.098-2.646,4.646-3.968
	c0.399,0.404,0.798,0.809,1.196,1.213c-1.663,1.817-3.017,4.291-5.078,5.261c-1.924,0.905-4.957,0.907-6.807-0.044
	c-1.072-0.552-1.424-3.937-0.959-5.755c1.072-4.197,2.839-8.217,3.284-12.802c-1.479,1.316-2.958,2.632-4.437,3.947
	c-0.4-0.388-0.801-0.775-1.202-1.163c1.755-1.892,3.197-4.406,5.358-5.486c1.896-0.948,4.84-0.876,6.829-0.058
	c0.833,0.343,0.939,3.927,0.424,5.771c-1.176,4.205-2.939,8.246-4.464,12.354C1385.508,760.784,1385.911,761.027,1386.313,761.271z"
	/>
<path fill-rule="evenodd" clip-rule="evenodd" d="M1140.335,754.966c0.635-5.115,2.2-5.586,13.163-3.963
	C1152.834,756.052,1150.976,756.611,1140.335,754.966z"/>
<path fill-rule="evenodd" clip-rule="evenodd" d="M1395.85,730.431c-2.496,1.735-4.058,3.58-5.01,3.307
	c-1.472-0.424-2.528-2.295-3.761-3.552c1.243-1.067,2.402-2.826,3.755-2.991C1391.992,727.053,1393.374,728.737,1395.85,730.431z"/>
<path fill-rule="evenodd" clip-rule="evenodd" d="M1535.344,725.404c1.708,2.356,3.621,3.899,3.373,4.918
	c-0.344,1.416-2.307,2.438-3.577,3.628c-1.065-1.218-2.867-2.371-2.982-3.673C1532.051,729.07,1533.745,727.703,1535.344,725.404z"
	/>
<path fill-rule="evenodd" clip-rule="evenodd" fill="#FFFFFF" d="M749.83,291.08c-2.074-3.836-4.148-7.672-6.222-11.508
	c-0.44,0.187-0.879,0.374-1.319,0.561c2.597,6.298,5.194,12.597,7.791,18.896c0.508-0.17,1.017-0.34,1.526-0.51
	c0-1.143,0-2.286,0-3.429c0.269-0.049,0.538-0.098,0.807-0.147c0.519,1.754,1.037,3.508,1.555,5.263
	c-0.27,0.312-0.541,0.625-0.811,0.937c-2.007-1.152-4.392-1.93-5.962-3.515c-10.777-10.878-16.932-24.106-18.975-39.213
	c-0.299-2.212-0.033-4.883,0.991-6.795c1.33-2.485,3.681-4.423,5.592-6.597c1.785,1.596,3.742,3.039,5.328,4.813
	c9.29,10.393,15.246,22.446,17.805,36.179c0.232,1.245,1.153,2.347,1.554,3.58c0.364,1.12,0.456,2.329-0.154,3.658
	c-6.772-12.833-9.285-27.546-19.27-38.5c-0.463,0.196-0.926,0.393-1.389,0.589c4.544,11.523,9.089,23.045,13.634,34.568
	C751.483,290.298,750.656,290.689,749.83,291.08z"/>
<path fill-rule="evenodd" clip-rule="evenodd" fill="#FFFFFF" d="M799.635,272.412c-3.926,8.062-7.852,16.124-11.778,24.186
	c-0.381-0.156-0.763-0.312-1.145-0.468c0-1.831,0-3.661,0-5.491c-0.296-0.152-0.592-0.304-0.888-0.456
	c-6.233,9.837-12.465,19.673-19.474,30.736c-0.293-10.66,10.438-15.989,8.966-25.428c-0.498-0.239-0.995-0.477-1.492-0.716
	c-3.986,7.401-7.973,14.803-11.942,22.174c-3.916-11.964,17.517-38.806,36.476-45.375
	C798.784,271.853,799.209,272.132,799.635,272.412z"/>
<path fill-rule="evenodd" clip-rule="evenodd" fill="#FFFFFF" d="M792.857,302.221c-2.73,4.334-5.461,8.668-8.419,13.364
	c-1.2-2.929-1.2-2.929,7.326-13.994C792.128,301.801,792.493,302.011,792.857,302.221z"/>
<path fill-rule="evenodd" clip-rule="evenodd" fill="#FFFFFF" d="M952.211,417.542c9.606-0.888,19.286-1.172,27.649,3.854
	c10.056,6.044,9.943,16.645,9.04,26.729c-0.754,8.407-4.959,15.087-13.724,16.945c-7.384,1.565-15.01,1.982-22.965,2.961
	C952.211,450.777,952.211,434.402,952.211,417.542z"/>
<path fill-rule="evenodd" clip-rule="evenodd" fill="#FFFFFF" d="M974.095,629.301c8.414,1.053,16.237,1.398,23.743,3.125
	c10.483,2.411,15.066,10.444,15.859,20.518c0.384,4.891-0.006,10.05-1.175,14.811c-2.447,9.967-10.473,15.718-21.361,16.261
	c-14.125,0.703-16.818-1.667-17.028-15.789C973.948,655.761,974.095,643.29,974.095,629.301z"/>
<path fill-rule="evenodd" clip-rule="evenodd" fill="#FFFFFF" d="M974.195,626.389c0-16.272,0-31.524,0-47.925
	c7.151,0.666,14.063,0.945,20.821,2.117c2.708,0.47,5.575,2.439,7.51,4.523c7.441,8.018,6.603,17.737,4.199,27.243
	c-2.098,8.296-8.734,11.723-16.711,12.703C984.939,625.675,979.818,625.927,974.195,626.389z"/>
<path fill-rule="evenodd" clip-rule="evenodd" fill="#FFFFFF" d="M1288.872,418.021c11.692-0.998,22.985-1.257,33.936,2.199
	c7.501,2.368,13.847,7.003,17.81,13.79c12.886,22.066,13.776,45,3.1,68.101c-4.547,9.838-12.925,15.618-23.76,16.867
	c-7.233,0.834-14.582,1.022-21.87,0.915c-5.61-0.083-8.358-3.11-8.948-8.768c-0.292-2.806-0.261-5.653-0.263-8.481
	c-0.016-26.473-0.007-52.945-0.005-79.418C1288.872,421.583,1288.872,419.939,1288.872,418.021z"/>
<path fill-rule="evenodd" clip-rule="evenodd" fill="#FFFFFF" d="M1106.171,642.789c-13.157,0-25.738,0-39.075,0
	c6.419-15.563,12.71-30.817,19.46-47.185C1093.295,611.816,1099.649,627.102,1106.171,642.789z"/>
<path fill-rule="evenodd" clip-rule="evenodd" fill="#FFFFFF" d="M1208.465,480.02c-9.561,0-18.341,0-27.121,0
	c-3.46,0-6.92,0-11.152,0c6.38-15.446,12.493-30.248,19.082-46.198C1195.881,449.729,1202.038,464.551,1208.465,480.02z"/>
<path fill-rule="evenodd" clip-rule="evenodd" fill="#FFFFFF" d="M1561.903,749.603c-1.946,3.935-3.464,7.787-5.723,11.141
	c-0.782,1.159-3.626,1.789-5.112,1.326c-1.068-0.333-2.352-3.168-1.965-4.388c1.221-3.859,2.926-7.639,5.006-11.112
	c0.665-1.11,3.343-1.933,4.624-1.495C1559.998,745.507,1560.662,747.699,1561.903,749.603z"/>
<path fill-rule="evenodd" clip-rule="evenodd" fill="#FFFFFF" d="M1114.202,748.688c-2.488,3.564-4.88,7.324-7.682,10.748
	c-0.631,0.771-3.028,0.926-4.002,0.344c-0.924-0.553-1.785-2.749-1.395-3.691c1.601-3.86,3.484-7.649,5.743-11.156
	c0.573-0.891,3.08-1.171,4.382-0.75C1112.254,744.506,1112.763,746.364,1114.202,748.688z"/>
<path fill-rule="evenodd" clip-rule="evenodd" fill="#FFFFFF" d="M1445.096,747.052c-2.782,3.201-4.774,5.493-6.767,7.785
	c-1.069-1.178-3.274-2.88-3.014-3.444c1.265-2.743,3.191-5.182,4.883-7.728C1441.44,744.523,1442.682,745.382,1445.096,747.052z"/>
<path fill-rule="evenodd" clip-rule="evenodd" fill="#FFFFFF" d="M1178.287,760.129c-1.135-6.148,0.868-10.934,4.865-14.99
	c1.603-1.626,3.598-2.084,4.67,0.677C1189.462,750.037,1183.923,758.948,1178.287,760.129z"/>
<path fill-rule="evenodd" clip-rule="evenodd" fill="#FFFFFF" d="M976.901,748.611c-2.064,3.36-4.148,6.982-6.514,10.409
	c-0.473,0.685-2.237,1.116-3.007,0.771c-0.733-0.328-1.549-2.045-1.284-2.767c1.444-3.931,3.041-7.832,4.994-11.526
	c0.444-0.841,2.638-1.326,3.778-1.028C975.63,744.67,975.952,746.547,976.901,748.611z"/>
<path fill-rule="evenodd" clip-rule="evenodd" fill="#FFFFFF" d="M1056.123,749.399c-1.961,4.134-3.316,7.873-5.473,11.073
	c-0.788,1.171-3.679,1.758-5.232,1.308c-1.15-0.334-2.559-2.921-2.336-4.251c0.617-3.681,1.577-7.471,3.322-10.724
	c0.821-1.53,3.939-2.887,5.674-2.551C1053.584,744.546,1054.607,747.334,1056.123,749.399z"/>
<path fill-rule="evenodd" clip-rule="evenodd" fill="#FFFFFF" d="M924.862,749.478c-2.138,4.074-3.848,7.978-6.211,11.437
	c-0.69,1.01-3.467,1.383-4.858,0.874c-1.093-0.399-2.358-2.786-2.1-3.977c0.857-3.958,1.987-7.971,3.823-11.547
	c0.687-1.337,3.87-2.441,5.425-1.985C922.451,744.723,923.332,747.305,924.862,749.478z"/>
<path fill-rule="evenodd" clip-rule="evenodd" fill="#FFFFFF" d="M1085.07,749.583c-1.562,3.633-2.556,7.208-4.56,10.078
	c-1.018,1.457-4.076,2.531-5.798,2.105c-1.251-0.31-2.749-3.501-2.503-5.165c0.496-3.353,1.608-6.869,3.451-9.671
	c1.056-1.605,4.078-2.65,6.15-2.555C1082.894,744.426,1083.836,747.491,1085.07,749.583z"/>
<path fill-rule="evenodd" clip-rule="evenodd" fill="#FFFFFF" d="M1281.396,749.466c-1.687,3.806-2.837,7.476-4.892,10.539
	c-0.894,1.332-3.864,2.236-5.483,1.805c-1.271-0.339-2.906-3.212-2.644-4.64c0.674-3.669,1.87-7.423,3.76-10.607
	c0.879-1.479,4.001-2.555,5.827-2.232C1279.272,744.562,1280.117,747.418,1281.396,749.466z"/>
<path fill-rule="evenodd" clip-rule="evenodd" fill="#FFFFFF" d="M1461.071,752.017c1.993-2.606,3.809-5.388,6.092-7.708
	c0.654-0.666,2.66-0.001,4.047,0.054c-0.114,1.37,0.3,3.397-0.438,3.992c-2.532,2.038-5.468,3.573-8.25,5.3
	C1462.038,753.108,1461.555,752.563,1461.071,752.017z"/>
</svg>
